<svg width="25" height="25" viewBox="0 0 25 25" fill="none" xmlns="http://www.w3.org/2000/svg">
<path d="M11.7188 0C12.793 0 13.8306 0.138346 14.8315 0.415039C15.8325 0.691732 16.7643 1.08643 17.627 1.59912C18.4896 2.11182 19.279 2.72217 19.9951 3.43018C20.7113 4.13818 21.3216 4.92757 21.8262 5.79834C22.3307 6.66911 22.7254 7.60498 23.0103 8.60596C23.2951 9.60693 23.4375 10.6445 23.4375 11.7188C23.4375 12.793 23.2992 13.8306 23.0225 14.8315C22.7458 15.8325 22.3511 16.7643 21.8384 17.627C21.3257 18.4896 20.7153 19.279 20.0073 19.9951C19.2993 20.7113 18.5099 21.3216 17.6392 21.8262C16.7684 22.3307 15.8325 22.7254 14.8315 23.0103C13.8306 23.2951 12.793 23.4375 11.7188 23.4375C10.6445 23.4375 9.60693 23.2992 8.60596 23.0225C7.60498 22.7458 6.67318 22.3511 5.81055 21.8384C4.94792 21.3257 4.15853 20.7153 3.44238 20.0073C2.72624 19.2993 2.11589 18.5099 1.61133 17.6392C1.10677 16.7684 0.712077 15.8366 0.427246 14.8437C0.142415 13.8509 0 12.8092 0 11.7188C0 10.6445 0.138346 9.60693 0.415039 8.60596C0.691732 7.60498 1.08643 6.67318 1.59912 5.81055C2.11182 4.94792 2.72217 4.15853 3.43018 3.44238C4.13818 2.72624 4.92757 2.11589 5.79834 1.61133C6.66911 1.10677 7.60091 0.712077 8.59375 0.427246C9.58659 0.142415 10.6283 0 11.7188 0ZM18.75 10.9375H12.5V4.6875H10.9375V10.9375H4.6875V12.5H10.9375V18.75H12.5V12.5H18.75V10.9375Z" fill="white"/>
</svg>
