<svg width="26" height="26" viewBox="0 0 26 26" fill="none" xmlns="http://www.w3.org/2000/svg">
<g clip-path="url(#clip0)">
<path d="M12.935 25.9741C5.85596 25.9741 -0.156049 20.2223 0.000106766 12.5446C0.130237 6.22032 5.33544 0.0521478 13.0391 9.57088e-05C20.2223 -0.0519563 26.0001 5.88198 25.9741 13.1953C25.9741 20.1963 20.0922 25.9741 12.935 25.9741ZM13.0652 2.65475C7.41752 2.6027 2.73284 7.15725 2.65476 12.857C2.55066 18.4786 7.15726 23.2674 12.7268 23.3454C18.5306 23.4235 23.3194 18.869 23.3715 13.1432C23.4235 7.41751 18.8429 2.73283 13.0652 2.65475Z" fill="white"/>
<path d="M11.7117 11.6857C11.7117 9.91595 11.7117 8.25029 11.7117 6.55859C12.5966 6.55859 13.4034 6.55859 14.3404 6.55859C14.3404 7.75579 14.3404 8.92696 14.3404 10.1242C14.3404 11.6857 14.3404 11.6857 15.8759 11.6857C16.943 11.6857 17.984 11.6857 19.0511 11.6857C19.4154 11.6857 19.5716 11.7898 19.5456 12.1542C19.5195 12.7007 19.5195 13.2473 19.5456 13.7678C19.5716 14.2102 19.3634 14.3143 18.973 14.3143C17.6457 14.2883 16.2923 14.3143 14.965 14.2883C14.4965 14.2883 14.3143 14.4185 14.3404 14.9129C14.3664 16.2403 14.3404 17.5936 14.3664 18.921C14.3664 19.3634 14.2362 19.5456 13.7678 19.5196C13.1171 19.4675 12.2843 19.6757 11.8419 19.3374C11.5295 19.1031 11.7117 18.1662 11.7117 17.5416C11.6857 16.5266 11.7117 15.5115 11.6857 14.4965C11.6857 14.4705 11.6597 14.4185 11.6076 14.3143C9.96798 14.3143 8.30231 14.3143 6.58459 14.3143C6.58459 13.4034 6.58459 12.5706 6.58459 11.6857C8.25026 11.6857 9.94195 11.6857 11.7117 11.6857Z" fill="white"/>
</g>
<defs>
<clipPath id="clip0">
<rect width="26" height="25.974" fill="white"/>
</clipPath>
</defs>
</svg>
