<svg width="24" height="24" viewBox="0 0 24 24" fill="none" xmlns="http://www.w3.org/2000/svg">
<g clip-path="url(#clip0)">
<path d="M2.66437 10.7001C1.93052 10.7001 1.26768 10.7237 0.62852 10.6764C0.510156 10.6764 0.273429 10.416 0.273429 10.2976C0.249756 7.62262 0.226083 4.92393 0.273429 2.24891C0.297101 1.0416 1.31503 0.0236727 2.54601 0.0236727C5.19736 0 7.87238 0.0236727 10.5237 0C10.8551 0 10.9735 0.142036 10.9498 0.473455C10.9262 0.946909 10.9262 1.42036 10.9498 1.89382C10.9735 2.3436 10.8078 2.46196 10.3817 2.46196C8.08543 2.43829 5.7655 2.46196 3.46925 2.46196C2.66437 2.46196 2.66437 2.46196 2.66437 3.29051C2.66437 5.51575 2.66437 7.74098 2.66437 9.96622C2.66437 10.1793 2.66437 10.3923 2.66437 10.7001Z" fill="white"/>
<path d="M2.66499 21.3288C5.45837 21.3288 8.18073 21.3288 10.9268 21.3288C10.9268 22.1336 10.9268 22.8912 10.9268 23.6724C10.8321 23.696 10.7611 23.7197 10.69 23.7197C8.01502 23.7197 5.31633 23.7434 2.64132 23.7197C1.31564 23.7197 0.297715 22.7491 0.297715 21.3998C0.226697 18.7721 0.25037 16.1208 0.25037 13.4694C0.25037 13.138 0.368733 12.996 0.700152 13.0196C1.12626 13.0433 1.57604 13.0433 2.00215 13.0196C2.52295 12.9723 2.68866 13.138 2.66499 13.6825C2.64132 15.9787 2.64132 18.2513 2.64132 20.5476C2.66499 20.7606 2.66499 20.9973 2.66499 21.3288Z" fill="white"/>
<path d="M21.5795 21.3287C21.5795 18.772 21.5795 16.2864 21.5795 13.8007C21.5795 13.0195 21.5795 13.0195 22.3371 13.0195C23.9705 13.0195 23.9705 13.0195 23.9705 14.6293C23.9705 16.8072 23.9705 19.0087 23.9705 21.1866C23.9705 22.7017 22.9999 23.6959 21.5085 23.6959C18.9519 23.7196 16.3715 23.6959 13.8149 23.7196C13.4124 23.7196 13.2467 23.6249 13.2704 23.1988C13.2941 22.749 13.2941 22.2992 13.2704 21.8495C13.2467 21.4234 13.4361 21.3287 13.8385 21.3287C16.1821 21.3523 18.5257 21.3287 20.8693 21.3287C21.0824 21.3287 21.2955 21.3287 21.5795 21.3287Z" fill="white"/>
<path d="M21.6033 2.43805C20.3013 2.43805 19.094 2.43805 17.8867 2.43805C16.561 2.43805 15.2353 2.41437 13.9333 2.43805C13.3889 2.46172 13.2231 2.27234 13.2705 1.75154C13.2942 1.3491 13.2942 0.970338 13.2705 0.567901C13.2468 0.165465 13.3652 -0.000244141 13.815 -0.000244141C16.3953 0.0234286 18.952 -0.000244141 21.5086 0.0234286C22.8343 0.0234286 23.9232 0.970338 23.9469 2.22499C23.9942 5.01837 23.9706 7.81176 23.9706 10.6762C23.1894 10.6762 22.4318 10.6762 21.6033 10.6762C21.6033 7.95379 21.6033 5.23143 21.6033 2.43805Z" fill="white"/>
<path d="M5.03241 18.9377C6.61848 16.9492 8.15721 15.0317 9.74328 13.0195C10.9269 14.4872 12.0632 15.9076 13.2705 17.399C14.0754 16.3337 14.8329 15.3395 15.6851 14.2268C16.8688 15.7892 18.0051 17.3043 19.236 18.9377C14.4542 18.9377 9.8143 18.9377 5.03241 18.9377Z" fill="white"/>
<path d="M16.2768 9.51623C15.3063 9.51623 14.4777 8.68769 14.4777 7.69343C14.4777 6.72285 15.2826 5.94165 16.2532 5.94165C17.2711 5.94165 18.0523 6.72285 18.076 7.74078C18.076 8.66401 17.2001 9.51623 16.2768 9.51623Z" fill="white"/>
</g>
<defs>
<clipPath id="clip0">
<rect width="23.7201" height="23.7437" fill="white" transform="translate(0.250427)"/>
</clipPath>
</defs>
</svg>
