<svg width="24" height="25" viewBox="0 0 24 25" fill="none" xmlns="http://www.w3.org/2000/svg">
<path d="M21.0901 20.5738C20.3047 20.2698 19.5445 19.9658 18.7591 19.6617C17.6442 19.231 16.0227 20.1431 15.82 21.3086C15.2625 24.2224 15.2625 24.2224 12.3234 24.2224C9.56166 24.2224 9.56166 24.2224 9.08026 21.4607C8.85222 20.1178 7.28131 19.231 6.01445 19.7124C3.43005 20.7005 3.43005 20.7005 2.01116 18.2682C0.516265 15.6838 0.516265 15.6838 2.77128 13.8088C3.63275 13.074 3.65808 11.1484 2.77128 10.4136C0.541602 8.53865 0.541602 8.53865 1.98583 6.03027C3.40471 3.54721 3.40471 3.54722 6.09046 4.56071C7.28131 5.01678 8.87756 4.10463 9.10559 2.86311C9.61234 0 9.61234 0 12.3994 0C15.3132 0 15.3132 0 15.82 2.83777C16.048 4.10463 17.6189 4.99144 18.8351 4.53537C21.4955 3.52188 21.4955 3.52188 22.9397 6.03027C24.384 8.53865 24.384 8.53865 22.1796 10.3883C21.2421 11.1737 21.2675 13.074 22.2303 13.8595C24.4093 15.6584 24.4093 15.6584 22.9651 18.1415C22.6103 18.7496 22.2303 19.3577 21.9009 19.9911C21.7489 20.2951 21.6729 20.6499 21.5462 20.9539C21.3942 20.8272 21.2421 20.7005 21.0901 20.5738ZM12.4754 7.60118C10.0431 7.60118 7.96542 9.67883 7.96542 12.0859C7.96542 14.5182 10.0431 16.5959 12.4501 16.5959C14.8825 16.5959 16.9601 14.5182 16.9601 12.1112C16.9601 9.70417 14.8825 7.62651 12.4754 7.60118Z" fill="white"/>
</svg>
