<svg width="26" height="26" viewBox="0 0 26 26" fill="none" xmlns="http://www.w3.org/2000/svg">
<path d="M11.7116 11.6857C11.7116 9.91595 11.7116 8.25029 11.7116 6.55859C12.5965 6.55859 13.4033 6.55859 14.3402 6.55859C14.3402 7.75579 14.3402 8.92696 14.3402 10.1242C14.3402 11.6857 14.3402 11.6857 15.8758 11.6857C16.9428 11.6857 17.9839 11.6857 19.0509 11.6857C19.4153 11.6857 19.5715 11.7898 19.5454 12.1542C19.5194 12.7007 19.5194 13.2473 19.5454 13.7678C19.5715 14.2102 19.3633 14.3143 18.9729 14.3143C17.6455 14.2883 16.2922 14.3143 14.9649 14.2883C14.4964 14.2883 14.3142 14.4185 14.3402 14.9129C14.3663 16.2403 14.3402 17.5936 14.3663 18.921C14.3663 19.3634 14.2361 19.5456 13.7677 19.5196C13.117 19.4675 12.2842 19.6757 11.8417 19.3374C11.5294 19.1031 11.7116 18.1662 11.7116 17.5416C11.6856 16.5266 11.7116 15.5115 11.6856 14.4965C11.6856 14.4705 11.6595 14.4185 11.6075 14.3143C9.96786 14.3143 8.30219 14.3143 6.58447 14.3143C6.58447 13.4034 6.58447 12.5706 6.58447 11.6857C8.25014 11.6857 9.94183 11.6857 11.7116 11.6857Z" fill="white"/>
</svg>
