<svg width="17" height="25" viewBox="0 0 17 25" fill="none" xmlns="http://www.w3.org/2000/svg">
<path d="M11.7049 16.62C11.9929 12.3 16.9249 12.156 16.9249 7.44C16.9249 4.02 13.8649 0.959998 9.00492 0.959998C4.28892 0.959998 1.08492 4.2 0.904922 8.34L7.02492 9.06C7.02492 7.62 7.92492 6.72 8.82492 6.72C9.90492 6.72 10.4449 7.188 10.4449 8.16C10.4449 10.176 5.94492 11.004 5.94492 16.62H11.7049ZM5.76492 21.3C5.76492 22.92 7.20492 24.36 8.82492 24.36C10.4449 24.36 11.8849 22.92 11.8849 21.3C11.8849 19.68 10.4449 18.24 8.82492 18.24C7.20492 18.24 5.76492 19.68 5.76492 21.3Z" fill="white"/>
</svg>
