<svg width="26" height="26" viewBox="0 0 26 26" fill="none" xmlns="http://www.w3.org/2000/svg">
<g clip-path="url(#clip0)">
<path d="M12.909 25.9999C5.61026 25.9999 -0.0780466 20.1817 -0.00012449 12.6232C0.0777976 6.02582 5.48039 0.0517989 13.0129 -0.000149115C20.2336 -0.0520972 25.9999 5.86998 25.9999 13.2206C25.9999 20.2596 20.1038 25.9999 12.909 25.9999ZM2.64923 13.3245C2.80507 19.1947 7.84403 23.844 13.8181 23.3245C19.6622 22.857 23.6622 17.818 23.3505 12.4934C22.9869 6.41543 17.7921 2.10375 11.7661 2.70115C6.64923 3.2466 2.23364 8.28556 2.64923 13.3245Z" fill="white"/>
<path d="M6.51953 14.2338C6.51953 13.4026 6.51953 12.5974 6.51953 11.7143C6.7533 11.6883 6.96109 11.6883 7.16888 11.6883C11.039 11.6883 14.9091 11.7143 18.7793 11.6624C19.4026 11.6624 19.5585 11.8701 19.5325 12.4416C19.4806 12.8831 19.5065 13.3507 19.5325 13.7922C19.5325 14.1299 19.4546 14.3117 19.065 14.3117C14.9611 14.2857 10.8312 14.2857 6.72732 14.2857C6.67538 14.2857 6.6494 14.2598 6.51953 14.2338Z" fill="white"/>
</g>
<defs>
<clipPath id="clip0">
<rect width="26" height="26" fill="white"/>
</clipPath>
</defs>
</svg>
