<svg width="23" height="24" viewBox="0 0 23 24" fill="none" xmlns="http://www.w3.org/2000/svg">
<g clip-path="url(#clip0)">
<path d="M22.1425 20.6853C22.1425 21.7307 22.1425 22.7126 22.1425 23.7897C14.7617 23.7897 7.41261 23.7897 0.00012207 23.7897C0.00012207 22.776 0.00012207 21.7623 0.00012207 20.6853C7.34925 20.6853 14.6984 20.6853 22.1425 20.6853Z" fill="white"/>
<path d="M19.3866 16.5354C17.2326 11.5304 15.0152 6.55703 12.9245 1.52034C12.4493 0.379961 11.9108 -0.126876 10.6437 0.0315108C10.0101 0.0948654 9.72505 0.253252 9.5033 0.823443C7.76105 4.90981 5.98713 8.99618 4.2132 13.0826C3.57965 14.5397 2.97778 15.9652 2.31256 17.5174C3.38959 17.5174 4.37158 17.549 5.3219 17.4857C5.51197 17.4857 5.76538 17.2323 5.86042 17.0422C6.24054 16.2186 6.55732 15.3316 6.93744 14.508C7.03248 14.2863 7.38093 14.0645 7.60267 14.0645C9.88343 14.0329 12.1959 14.0329 14.4766 14.0645C14.6984 14.0645 15.0468 14.318 15.1419 14.508C15.522 15.3 15.8388 16.1552 16.1872 16.9789C16.2822 17.2006 16.504 17.4857 16.6624 17.4857C17.6444 17.549 18.658 17.5174 19.7351 17.5174C19.6084 17.1372 19.5133 16.8205 19.3866 16.5354ZM8.14118 11.1186C9.0915 8.5527 10.0418 6.01852 11.0555 3.29427C12.0692 6.01852 12.9878 8.52102 13.9698 11.1186C11.9741 11.1186 10.1369 11.1186 8.14118 11.1186Z" fill="white"/>
</g>
<defs>
<clipPath id="clip0">
<rect width="22.1424" height="23.7896" fill="white"/>
</clipPath>
</defs>
</svg>
