<svg width="17" height="14" viewBox="0 0 17 14" fill="none" xmlns="http://www.w3.org/2000/svg">
<g clip-path="url(#clip0)">
<path d="M4.4916 13.4211C5.26107 13.4211 5.97686 13.4032 6.69265 13.4211C7.10423 13.439 7.22949 13.3137 7.2116 12.9021C7.1937 9.68106 7.1937 6.46001 7.1937 3.23896C7.1937 3.06001 7.1937 2.89896 7.1937 2.68422C7.40844 2.68422 7.5516 2.68422 7.69476 2.68422C8.87581 2.68422 10.0569 2.68422 11.22 2.66633C11.3632 2.66633 11.6137 2.54106 11.6137 2.46949C11.6495 1.64633 11.6316 0.805275 11.6316 -0.0178833C7.76634 1.14348e-05 3.91897 1.14348e-05 2.03038e-05 1.14348e-05C2.03038e-05 0.769485 0.017915 1.52106 2.03038e-05 2.25475C-0.0178744 2.63054 0.125283 2.70212 0.465283 2.70212C1.64634 2.68422 2.82739 2.70212 3.99055 2.70212C4.1516 2.70212 4.31265 2.70212 4.4916 2.70212C4.4916 6.29896 4.4916 9.82422 4.4916 13.4211Z" fill="url(#paint0_linear)"/>
<path d="M11.6495 13.4211C12.4548 13.4211 13.1885 13.4032 13.94 13.4211C14.2979 13.4389 14.3874 13.2958 14.3874 12.9558C14.3695 11.1842 14.3874 9.41263 14.3874 7.64105C14.3874 7.48 14.3874 7.33684 14.3874 7.1221C15.3179 7.1221 16.1769 7.1221 17.0179 7.1221C17.0179 6.20947 17.0179 5.35052 17.0179 4.49158C14.3337 4.49158 11.6674 4.49158 9.01898 4.49158C9.01898 5.38631 9.01898 6.24526 9.01898 7.15789C9.91372 7.15789 10.7727 7.15789 11.6495 7.15789C11.6495 9.26947 11.6495 11.2916 11.6495 13.4211Z" fill="url(#paint1_linear)"/>
</g>
<defs>
<linearGradient id="paint0_linear" x1="0.530492" y1="5.82404" x2="17.0211" y2="6.35687" gradientUnits="userSpaceOnUse">
<stop stop-color="#D93CC9"/>
<stop offset="1" stop-color="#2B1D80"/>
</linearGradient>
<linearGradient id="paint1_linear" x1="9.38462" y1="8.3734" x2="20.7184" y2="8.75221" gradientUnits="userSpaceOnUse">
<stop stop-color="#D93CC9"/>
<stop offset="1" stop-color="#2B1D80"/>
</linearGradient>
<clipPath id="clip0">
<rect width="17" height="13.4211" fill="white"/>
</clipPath>
</defs>
</svg>
