<svg width="44" height="43" viewBox="0 0 44 43" fill="none" xmlns="http://www.w3.org/2000/svg">
<path d="M32.7583 11.2255C26.9948 5.29337 17.4794 5.15618 11.5473 10.9197C5.61514 16.6832 5.47796 26.1986 11.2415 32.1307C17.005 38.0628 26.5203 38.2 32.4525 32.4365C38.3846 26.673 38.5218 17.1576 32.7583 11.2255ZM25.1925 26.62L21.9763 23.3097L18.6661 26.5259C18.4466 26.7391 18.1514 26.8565 17.8454 26.852C17.5394 26.8476 17.2477 26.7218 17.0344 26.5024C16.8212 26.2829 16.7039 25.9877 16.7083 25.6817C16.7127 25.3757 16.8385 25.084 17.058 24.8707L20.3682 21.6546L17.1521 18.3443C16.9388 18.1248 16.8215 17.8296 16.8259 17.5236C16.8303 17.2176 16.9561 16.9259 17.1756 16.7127C17.3951 16.4994 17.6903 16.3821 17.9963 16.3865C18.3023 16.3909 18.594 16.5167 18.8072 16.7362L22.0234 20.0465L25.3337 16.8303C25.5531 16.617 25.8484 16.4997 26.1543 16.5041C26.4603 16.5085 26.752 16.6343 26.9653 16.8538C27.1785 17.0733 27.2958 17.3685 27.2914 17.6745C27.287 17.9805 27.1612 18.2722 26.9418 18.4854L23.6315 21.7016L26.8477 25.0119C27.0609 25.2314 27.1782 25.5266 27.1738 25.8326C27.1694 26.1386 27.0436 26.4303 26.8241 26.6435C26.6046 26.8567 26.3094 26.9741 26.0035 26.9697C25.6975 26.9652 25.4058 26.8395 25.1925 26.62Z" fill="#FF0101"/>
</svg>
